<svg xmlns="http://www.w3.org/2000/svg" xmlns:xlink="http://www.w3.org/1999/xlink" width="1080" zoomAndPan="magnify" viewBox="0 0 810 1012.49997" height="1350" preserveAspectRatio="xMidYMid meet" version="1.0"><defs><clipPath id="c834e219ee"><path d="M 0.199219 931.511719 L 809.800781 931.511719 L 809.800781 1012 L 0.199219 1012 Z M 0.199219 931.511719 " clip-rule="nonzero"/></clipPath><clipPath id="6e17b5b11e"><path d="M 0.199219 930.613281 L 809.800781 930.613281 L 809.800781 1012 L 0.199219 1012 Z M 0.199219 930.613281 " clip-rule="nonzero"/></clipPath></defs><g clip-path="url(#c834e219ee)"><path fill="#00913a" d="M 838.667969 591.742188 L 838.667969 1096.792969 L -59.359375 1096.792969 L -59.359375 591.742188 Z M 838.667969 591.742188 " fill-opacity="1" fill-rule="nonzero"/><path fill="#ffffff" d="M 783.351562 1069.671875 L 811.546875 1069.671875 L 811.546875 1096.792969 L 783.351562 1096.792969 Z M 727.132812 1096.792969 L 755.152344 1096.792969 L 755.152344 1069.671875 L 726.953125 1069.671875 L 726.953125 1096.792969 Z M 670.917969 1096.792969 L 698.933594 1096.792969 L 698.933594 1069.671875 L 670.738281 1069.671875 Z M 614.699219 1096.792969 L 642.898438 1096.792969 L 642.898438 1069.671875 L 614.699219 1069.671875 Z M 558.304688 1096.792969 L 586.5 1096.792969 L 586.5 1069.671875 L 558.304688 1069.671875 Z M 502.085938 1096.792969 L 530.285156 1096.792969 L 530.285156 1069.671875 L 502.085938 1069.671875 Z M 445.871094 1096.792969 L 474.070312 1096.792969 L 474.070312 1069.671875 L 445.871094 1069.671875 Z M 389.652344 1096.792969 L 417.851562 1096.792969 L 417.851562 1069.671875 L 389.652344 1069.671875 Z M 333.4375 1096.792969 L 361.636719 1096.792969 L 361.636719 1069.671875 L 333.4375 1069.671875 Z M 277.222656 1096.792969 L 305.238281 1096.792969 L 305.238281 1069.671875 L 277.042969 1069.671875 L 277.042969 1096.792969 Z M 221.003906 1096.792969 L 249.203125 1096.792969 L 249.203125 1069.671875 L 221.003906 1069.671875 Z M 164.609375 1096.792969 L 192.804688 1096.792969 L 192.804688 1069.671875 L 164.609375 1069.671875 Z M 108.390625 1096.792969 L 136.589844 1096.792969 L 136.589844 1069.671875 L 108.390625 1069.671875 Z M 52.175781 1096.792969 L 80.375 1096.792969 L 80.375 1069.671875 L 52.175781 1069.671875 Z M -4.042969 1096.792969 L 24.15625 1096.792969 L 24.15625 1069.671875 L -4.042969 1069.671875 Z M -59.359375 1096.792969 L -32.238281 1096.792969 L -32.238281 1069.671875 L -59.359375 1069.671875 Z M 838.667969 1069.671875 L 838.667969 1041.472656 L 811.546875 1041.472656 L 811.546875 1069.671875 Z M 755.152344 1041.472656 L 755.152344 1069.671875 L 783.351562 1069.671875 L 783.351562 1041.472656 Z M 783.351562 1041.472656 L 811.546875 1041.472656 L 811.546875 1013.277344 L 783.351562 1013.277344 Z M 698.933594 1041.472656 L 698.933594 1069.671875 L 727.132812 1069.671875 L 727.132812 1041.472656 Z M 727.132812 1013.457031 L 727.132812 1041.652344 L 755.152344 1041.652344 L 755.152344 1013.457031 Z M 642.71875 1041.472656 L 642.71875 1069.671875 L 670.917969 1069.671875 L 670.917969 1041.472656 Z M 670.917969 1013.457031 L 670.917969 1041.652344 L 698.933594 1041.652344 L 698.933594 1013.457031 Z M 586.503906 1041.472656 L 586.503906 1069.671875 L 614.699219 1069.671875 L 614.699219 1041.472656 Z M 614.699219 1013.457031 L 614.699219 1041.652344 L 642.898438 1041.652344 L 642.898438 1013.457031 Z M 530.285156 1041.472656 L 530.285156 1069.671875 L 558.484375 1069.671875 L 558.484375 1041.472656 Z M 558.304688 1013.457031 L 558.304688 1041.652344 L 586.5 1041.652344 L 586.5 1013.457031 Z M 474.070312 1041.472656 L 474.070312 1069.671875 L 502.265625 1069.671875 L 502.265625 1041.472656 Z M 502.085938 1013.457031 L 502.085938 1041.652344 L 530.285156 1041.652344 L 530.285156 1013.457031 Z M 417.851562 1041.472656 L 417.851562 1069.671875 L 446.050781 1069.671875 L 446.050781 1041.472656 Z M 445.871094 1013.457031 L 445.871094 1041.652344 L 474.070312 1041.652344 L 474.070312 1013.457031 Z M 361.457031 1041.472656 L 361.457031 1069.671875 L 389.652344 1069.671875 L 389.652344 1041.472656 Z M 389.652344 1013.457031 L 389.652344 1041.652344 L 417.851562 1041.652344 L 417.851562 1013.457031 Z M 305.238281 1041.472656 L 305.238281 1069.671875 L 333.4375 1069.671875 L 333.4375 1041.472656 Z M 333.4375 1013.457031 L 333.4375 1041.652344 L 361.636719 1041.652344 L 361.636719 1013.457031 Z M 249.023438 1041.472656 L 249.023438 1069.671875 L 277.222656 1069.671875 L 277.222656 1041.472656 Z M 277.222656 1013.457031 L 277.222656 1041.652344 L 305.238281 1041.652344 L 305.238281 1013.457031 Z M 192.804688 1041.472656 L 192.804688 1069.671875 L 221.003906 1069.671875 L 221.003906 1041.472656 Z M 221.003906 1013.457031 L 221.003906 1041.652344 L 249.203125 1041.652344 L 249.203125 1013.457031 Z M 136.589844 1041.472656 L 136.589844 1069.671875 L 164.789062 1069.671875 L 164.789062 1041.472656 Z M 164.609375 1013.457031 L 164.609375 1041.652344 L 192.804688 1041.652344 L 192.804688 1013.457031 Z M 80.371094 1041.472656 L 80.371094 1069.671875 L 108.570312 1069.671875 L 108.570312 1041.472656 Z M 108.390625 1013.457031 L 108.390625 1041.652344 L 136.589844 1041.652344 L 136.589844 1013.457031 Z M 24.15625 1041.472656 L 24.15625 1069.671875 L 52.355469 1069.671875 L 52.355469 1041.472656 Z M 52.175781 1013.457031 L 52.175781 1041.652344 L 80.375 1041.652344 L 80.375 1013.457031 Z M -4.042969 1041.472656 L -32.238281 1041.472656 L -32.238281 1069.671875 L -4.042969 1069.671875 Z M 24.15625 1013.457031 L -4.042969 1013.457031 L -4.042969 1041.652344 L 24.15625 1041.652344 Z M -59.359375 1013.457031 L -59.359375 1041.652344 L -32.238281 1041.652344 L -32.238281 1013.457031 Z M 838.667969 1013.457031 L 838.667969 985.257812 L 811.546875 985.257812 L 811.546875 1013.457031 Z M 755.152344 1013.457031 L 783.351562 1013.457031 L 783.351562 985.257812 L 755.152344 985.257812 Z M 783.351562 985.257812 L 811.546875 985.257812 L 811.546875 957.058594 L 783.351562 957.058594 Z M 698.933594 985.257812 L 698.933594 1013.457031 L 727.132812 1013.457031 L 727.132812 985.257812 Z M 727.132812 985.257812 L 755.152344 985.257812 L 755.152344 957.058594 L 726.953125 957.058594 L 726.953125 985.257812 Z M 642.71875 985.257812 L 642.71875 1013.457031 L 670.917969 1013.457031 L 670.917969 985.257812 Z M 670.917969 957.238281 L 670.917969 985.4375 L 698.933594 985.4375 L 698.933594 957.238281 Z M 586.503906 985.257812 L 586.503906 1013.457031 L 614.699219 1013.457031 L 614.699219 985.257812 Z M 614.699219 957.238281 L 614.699219 985.4375 L 642.898438 985.4375 L 642.898438 957.238281 Z M 530.285156 985.257812 L 530.285156 1013.457031 L 558.484375 1013.457031 L 558.484375 985.257812 Z M 558.304688 957.238281 L 558.304688 985.4375 L 586.5 985.4375 L 586.5 957.238281 Z M 474.070312 985.257812 L 474.070312 1013.457031 L 502.265625 1013.457031 L 502.265625 985.257812 Z M 502.085938 957.238281 L 502.085938 985.4375 L 530.285156 985.4375 L 530.285156 957.238281 Z M 417.851562 985.257812 L 417.851562 1013.457031 L 446.050781 1013.457031 L 446.050781 985.257812 Z M 445.871094 957.238281 L 445.871094 985.4375 L 474.070312 985.4375 L 474.070312 957.238281 Z M 361.457031 985.257812 L 361.457031 1013.457031 L 389.652344 1013.457031 L 389.652344 985.257812 Z M 389.652344 957.238281 L 389.652344 985.4375 L 417.851562 985.4375 L 417.851562 957.238281 Z M 305.238281 985.257812 L 305.238281 1013.457031 L 333.4375 1013.457031 L 333.4375 985.257812 Z M 333.4375 957.238281 L 333.4375 985.4375 L 361.636719 985.4375 L 361.636719 957.238281 Z M 249.023438 985.257812 L 249.023438 1013.457031 L 277.222656 1013.457031 L 277.222656 985.257812 Z M 277.222656 957.238281 L 277.222656 985.4375 L 305.238281 985.4375 L 305.238281 957.238281 Z M 192.804688 985.257812 L 192.804688 1013.457031 L 221.003906 1013.457031 L 221.003906 985.257812 Z M 221.003906 957.238281 L 221.003906 985.4375 L 249.203125 985.4375 L 249.203125 957.238281 Z M 136.589844 985.257812 L 136.589844 1013.457031 L 164.789062 1013.457031 L 164.789062 985.257812 Z M 164.609375 957.238281 L 164.609375 985.4375 L 192.804688 985.4375 L 192.804688 957.238281 Z M 80.371094 985.257812 L 80.371094 1013.457031 L 108.570312 1013.457031 L 108.570312 985.257812 Z M 108.390625 957.238281 L 108.390625 985.4375 L 136.589844 985.4375 L 136.589844 957.238281 Z M 52.175781 985.257812 L 23.976562 985.257812 L 23.976562 1013.457031 L 52.175781 1013.457031 Z M 80.371094 957.238281 L 52.175781 957.238281 L 52.175781 985.4375 L 80.371094 985.4375 Z M -4.042969 985.257812 L -32.238281 985.257812 L -32.238281 1013.457031 L -4.042969 1013.457031 Z M 24.15625 957.238281 L -4.042969 957.238281 L -4.042969 985.4375 L 24.15625 985.4375 Z M -59.359375 957.238281 L -59.359375 985.4375 L -32.238281 985.4375 L -32.238281 957.238281 Z M 838.667969 957.238281 L 838.667969 929.039062 L 811.546875 929.039062 L 811.546875 957.238281 Z M 755.152344 957.238281 L 783.351562 957.238281 L 783.351562 929.039062 L 755.152344 929.039062 Z M 783.351562 929.039062 L 811.546875 929.039062 L 811.546875 900.84375 L 783.351562 900.84375 Z M 698.933594 957.238281 L 727.132812 957.238281 L 727.132812 929.039062 L 698.933594 929.039062 C 698.933594 929.039062 698.933594 957.238281 698.933594 957.238281 Z M 727.132812 929.039062 L 755.152344 929.039062 L 755.152344 900.84375 L 726.953125 900.84375 L 726.953125 929.039062 Z M 642.71875 929.039062 L 642.71875 957.238281 L 670.917969 957.238281 L 670.917969 929.039062 Z M 670.917969 929.039062 L 698.933594 929.039062 L 698.933594 900.84375 L 670.738281 900.84375 Z M 586.503906 929.039062 L 586.503906 957.238281 L 614.699219 957.238281 L 614.699219 929.039062 Z M 614.699219 901.023438 L 614.699219 929.21875 L 642.898438 929.21875 L 642.898438 901.023438 Z M 530.285156 929.039062 L 530.285156 957.238281 L 558.484375 957.238281 L 558.484375 929.039062 Z M 558.304688 901.023438 L 558.304688 929.21875 L 586.5 929.21875 L 586.5 901.023438 Z M 474.070312 929.039062 L 474.070312 957.238281 L 502.265625 957.238281 L 502.265625 929.039062 Z M 502.085938 901.023438 L 502.085938 929.21875 L 530.285156 929.21875 L 530.285156 901.023438 Z M 417.851562 929.039062 L 417.851562 957.238281 L 446.050781 957.238281 L 446.050781 929.039062 Z M 445.871094 901.023438 L 445.871094 929.21875 L 474.070312 929.21875 L 474.070312 901.023438 Z M 361.457031 929.039062 L 361.457031 957.238281 L 389.652344 957.238281 L 389.652344 929.039062 Z M 389.652344 901.023438 L 389.652344 929.21875 L 417.851562 929.21875 L 417.851562 901.023438 Z M 305.238281 929.039062 L 305.238281 957.238281 L 333.4375 957.238281 L 333.4375 929.039062 Z M 333.4375 901.023438 L 333.4375 929.21875 L 361.636719 929.21875 L 361.636719 901.023438 Z M 249.023438 929.039062 L 249.023438 957.238281 L 277.222656 957.238281 L 277.222656 929.039062 Z M 277.222656 901.023438 L 277.222656 929.21875 L 305.238281 929.21875 L 305.238281 901.023438 Z M 192.804688 929.039062 L 192.804688 957.238281 L 221.003906 957.238281 L 221.003906 929.039062 Z M 221.003906 901.023438 L 221.003906 929.21875 L 249.203125 929.21875 L 249.203125 901.023438 Z M 136.589844 929.039062 L 136.589844 957.238281 L 164.789062 957.238281 L 164.789062 929.039062 Z M 164.609375 901.023438 L 164.609375 929.21875 L 192.804688 929.21875 L 192.804688 901.023438 Z M 108.390625 929.039062 L 80.195312 929.039062 L 80.195312 957.238281 L 108.390625 957.238281 Z M 136.589844 901.023438 L 108.390625 901.023438 L 108.390625 929.21875 L 136.589844 929.21875 Z M 52.175781 929.039062 L 23.976562 929.039062 L 23.976562 957.238281 L 52.175781 957.238281 Z M 80.371094 901.023438 L 52.175781 901.023438 L 52.175781 929.21875 L 80.371094 929.21875 Z M -4.042969 929.039062 L -32.238281 929.039062 L -32.238281 957.238281 L -4.042969 957.238281 Z M 24.15625 901.023438 L -4.042969 901.023438 L -4.042969 929.21875 L 24.15625 929.21875 Z M -59.359375 901.023438 L -59.359375 929.21875 L -32.238281 929.21875 L -32.238281 901.023438 Z M 838.667969 901.023438 L 838.667969 872.824219 L 811.546875 872.824219 L 811.546875 901.023438 Z M 755.152344 901.023438 L 783.351562 901.023438 L 783.351562 872.824219 L 755.152344 872.824219 Z M 783.351562 872.824219 L 811.546875 872.824219 L 811.546875 844.625 L 783.351562 844.625 Z M 698.933594 901.023438 L 727.132812 901.023438 L 727.132812 872.824219 L 698.933594 872.824219 C 698.933594 872.824219 698.933594 901.023438 698.933594 901.023438 Z M 727.132812 872.824219 L 755.152344 872.824219 L 755.152344 844.625 L 726.953125 844.625 L 726.953125 872.824219 Z M 642.71875 901.023438 L 670.917969 901.023438 L 670.917969 872.824219 L 642.71875 872.824219 Z M 670.917969 872.824219 L 698.933594 872.824219 L 698.933594 844.625 L 670.738281 844.625 Z M 586.503906 872.824219 L 586.503906 901.023438 L 614.699219 901.023438 L 614.699219 872.824219 Z M 614.699219 872.824219 L 642.898438 872.824219 L 642.898438 844.625 L 614.699219 844.625 Z M 530.285156 872.824219 L 530.285156 901.023438 L 558.484375 901.023438 L 558.484375 872.824219 Z M 558.304688 844.625 L 558.304688 872.824219 L 586.5 872.824219 L 586.5 844.625 Z M 474.070312 872.824219 L 474.070312 901.023438 L 502.265625 901.023438 L 502.265625 872.824219 Z M 502.085938 844.625 L 502.085938 872.824219 L 530.285156 872.824219 L 530.285156 844.625 Z M 417.851562 872.824219 L 417.851562 901.023438 L 446.050781 901.023438 L 446.050781 872.824219 Z M 445.871094 844.625 L 445.871094 872.824219 L 474.070312 872.824219 L 474.070312 844.625 Z M 361.457031 872.824219 L 361.457031 901.023438 L 389.652344 901.023438 L 389.652344 872.824219 Z M 389.652344 844.625 L 389.652344 872.824219 L 417.851562 872.824219 L 417.851562 844.625 Z M 305.238281 872.824219 L 305.238281 901.023438 L 333.4375 901.023438 L 333.4375 872.824219 Z M 333.4375 844.625 L 333.4375 872.824219 L 361.636719 872.824219 L 361.636719 844.625 Z M 249.023438 872.824219 L 249.023438 901.023438 L 277.222656 901.023438 L 277.222656 872.824219 Z M 277.222656 844.625 L 277.222656 872.824219 L 305.238281 872.824219 L 305.238281 844.625 Z M 192.804688 872.824219 L 192.804688 901.023438 L 221.003906 901.023438 L 221.003906 872.824219 Z M 221.003906 844.625 L 221.003906 872.824219 L 249.203125 872.824219 L 249.203125 844.625 Z M 164.609375 872.824219 L 136.410156 872.824219 L 136.410156 901.023438 L 164.609375 901.023438 Z M 192.804688 844.625 L 164.609375 844.625 L 164.609375 872.824219 L 192.804688 872.824219 Z M 108.390625 872.824219 L 80.195312 872.824219 L 80.195312 901.023438 L 108.390625 901.023438 Z M 136.589844 844.625 L 108.390625 844.625 L 108.390625 872.824219 L 136.589844 872.824219 Z M 52.175781 872.824219 L 23.976562 872.824219 L 23.976562 901.023438 L 52.175781 901.023438 Z M 80.371094 844.625 L 52.175781 844.625 L 52.175781 872.824219 L 80.371094 872.824219 Z M -4.042969 872.824219 L -32.238281 872.824219 L -32.238281 901.023438 L -4.042969 901.023438 Z M 24.15625 844.625 L -4.042969 844.625 L -4.042969 872.824219 L 24.15625 872.824219 Z M -59.359375 844.625 L -59.359375 872.824219 L -32.238281 872.824219 L -32.238281 844.625 Z M 838.667969 844.625 L 838.667969 816.429688 L 811.546875 816.429688 L 811.546875 844.625 Z M 755.152344 844.625 L 783.351562 844.625 L 783.351562 816.429688 L 755.152344 816.429688 Z M 783.351562 816.609375 L 811.546875 816.609375 L 811.546875 788.410156 L 783.351562 788.410156 Z M 698.933594 844.625 L 727.132812 844.625 L 727.132812 816.429688 L 698.933594 816.429688 C 698.933594 816.429688 698.933594 844.625 698.933594 844.625 Z M 727.132812 816.609375 L 755.152344 816.609375 L 755.152344 788.410156 L 726.953125 788.410156 L 726.953125 816.609375 Z M 642.71875 844.625 L 670.917969 844.625 L 670.917969 816.429688 L 642.71875 816.429688 Z M 670.917969 816.609375 L 698.933594 816.609375 L 698.933594 788.410156 L 670.738281 788.410156 Z M 614.699219 844.625 L 614.699219 816.429688 L 586.503906 816.429688 L 586.503906 844.625 Z M 642.71875 816.609375 L 642.71875 788.410156 L 614.519531 788.410156 L 614.519531 816.609375 Z M 558.304688 844.625 L 558.304688 816.429688 L 530.105469 816.429688 L 530.105469 844.625 Z M 586.503906 816.609375 L 586.503906 788.410156 L 558.304688 788.410156 L 558.304688 816.609375 Z M 502.085938 844.625 L 502.085938 816.429688 L 474.070312 816.429688 L 474.070312 844.625 Z M 530.285156 816.609375 L 530.285156 788.410156 L 502.085938 788.410156 L 502.085938 816.609375 Z M 445.871094 844.625 L 445.871094 816.429688 L 417.671875 816.429688 L 417.671875 844.625 Z M 474.070312 816.609375 L 474.070312 788.410156 L 445.871094 788.410156 L 445.871094 816.609375 Z M 389.652344 844.625 L 389.652344 816.429688 L 361.457031 816.429688 L 361.457031 844.625 Z M 417.851562 816.609375 L 417.851562 788.410156 L 389.652344 788.410156 L 389.652344 816.609375 Z M 333.4375 844.625 L 333.4375 816.429688 L 305.238281 816.429688 L 305.238281 844.625 Z M 361.457031 816.609375 L 361.457031 788.410156 L 333.257812 788.410156 L 333.257812 816.609375 Z M 277.222656 844.625 L 277.222656 816.429688 L 249.023438 816.429688 L 249.023438 844.625 Z M 305.238281 816.609375 L 305.238281 788.410156 L 277.042969 788.410156 L 277.042969 816.609375 Z M 221.003906 844.625 L 221.003906 816.429688 L 192.804688 816.429688 L 192.804688 844.625 Z M 249.023438 816.609375 L 249.023438 788.410156 L 220.824219 788.410156 L 220.824219 816.609375 Z M 164.609375 816.609375 L 136.410156 816.609375 L 136.410156 844.804688 L 164.609375 844.804688 Z M 192.804688 816.609375 L 192.804688 788.410156 L 164.609375 788.410156 L 164.609375 816.609375 Z M 108.390625 816.609375 L 80.195312 816.609375 L 80.195312 844.804688 L 108.390625 844.804688 Z M 136.589844 788.410156 L 108.390625 788.410156 L 108.390625 816.609375 L 136.589844 816.609375 Z M 52.175781 816.609375 L 23.976562 816.609375 L 23.976562 844.804688 L 52.175781 844.804688 Z M 80.371094 788.410156 L 52.175781 788.410156 L 52.175781 816.609375 L 80.371094 816.609375 Z M -4.042969 816.609375 L -32.238281 816.609375 L -32.238281 844.804688 L -4.042969 844.804688 Z M 24.15625 788.410156 L -4.042969 788.410156 L -4.042969 816.609375 L 24.15625 816.609375 Z M -59.359375 788.410156 L -59.359375 816.609375 L -32.238281 816.609375 L -32.238281 788.410156 Z M 838.667969 788.410156 L 838.667969 760.390625 L 811.546875 760.390625 L 811.546875 788.589844 Z M 755.152344 788.410156 L 783.351562 788.410156 L 783.351562 760.390625 L 755.152344 760.390625 Z M 783.351562 760.390625 L 811.546875 760.390625 L 811.546875 732.191406 L 783.351562 732.191406 Z M 698.933594 788.410156 L 727.132812 788.410156 L 727.132812 760.390625 L 698.933594 760.390625 C 698.933594 760.390625 698.933594 788.410156 698.933594 788.410156 Z M 727.132812 760.390625 L 755.152344 760.390625 L 755.152344 732.191406 L 726.953125 732.191406 L 726.953125 760.390625 Z M 670.917969 788.410156 L 670.917969 760.390625 L 642.71875 760.390625 L 642.71875 788.589844 Z M 698.933594 760.390625 L 698.933594 732.191406 L 670.738281 732.191406 L 670.738281 760.390625 C 670.738281 760.390625 698.933594 760.390625 698.933594 760.390625 Z M 614.699219 788.410156 L 614.699219 760.390625 L 586.503906 760.390625 L 586.503906 788.589844 Z M 642.71875 760.390625 L 642.71875 732.191406 L 614.519531 732.191406 L 614.519531 760.390625 C 614.519531 760.390625 642.71875 760.390625 642.71875 760.390625 Z M 558.304688 788.410156 L 558.304688 760.390625 L 530.105469 760.390625 L 530.105469 788.589844 Z M 586.503906 760.390625 L 586.503906 732.191406 L 558.304688 732.191406 L 558.304688 760.390625 C 558.304688 760.390625 586.503906 760.390625 586.503906 760.390625 Z M 502.085938 788.410156 L 502.085938 760.390625 L 474.070312 760.390625 L 474.070312 788.589844 Z M 530.285156 760.390625 L 530.285156 732.191406 L 502.085938 732.191406 L 502.085938 760.390625 C 502.085938 760.390625 530.285156 760.390625 530.285156 760.390625 Z M 445.871094 788.410156 L 445.871094 760.390625 L 417.671875 760.390625 L 417.671875 788.589844 Z M 474.070312 760.390625 L 474.070312 732.191406 L 445.871094 732.191406 L 445.871094 760.390625 C 445.871094 760.390625 474.070312 760.390625 474.070312 760.390625 Z M 389.652344 788.410156 L 389.652344 760.390625 L 361.457031 760.390625 L 361.457031 788.589844 Z M 417.851562 760.390625 L 417.851562 732.191406 L 389.652344 732.191406 L 389.652344 760.390625 C 389.652344 760.390625 417.851562 760.390625 417.851562 760.390625 Z M 333.4375 788.410156 L 333.4375 760.390625 L 305.238281 760.390625 L 305.238281 788.589844 Z M 361.457031 760.390625 L 361.457031 732.191406 L 333.257812 732.191406 L 333.257812 760.390625 C 333.257812 760.390625 361.457031 760.390625 361.457031 760.390625 Z M 277.222656 788.410156 L 277.222656 760.390625 L 249.023438 760.390625 L 249.023438 788.589844 Z M 305.238281 760.390625 L 305.238281 732.191406 L 277.042969 732.191406 L 277.042969 760.390625 C 277.042969 760.390625 305.238281 760.390625 305.238281 760.390625 Z M 221.003906 788.410156 L 221.003906 760.390625 L 192.804688 760.390625 L 192.804688 788.589844 Z M 249.023438 760.390625 L 249.023438 732.191406 L 220.824219 732.191406 L 220.824219 760.390625 C 220.824219 760.390625 249.023438 760.390625 249.023438 760.390625 Z M 164.609375 788.410156 L 164.609375 760.390625 L 136.410156 760.390625 L 136.410156 788.589844 Z M 192.804688 760.390625 L 192.804688 732.191406 L 164.609375 732.191406 L 164.609375 760.390625 C 164.609375 760.390625 192.804688 760.390625 192.804688 760.390625 Z M 108.390625 760.390625 L 80.195312 760.390625 L 80.195312 788.589844 L 108.390625 788.589844 Z M 136.589844 760.390625 L 136.589844 732.191406 L 108.390625 732.191406 L 108.390625 760.390625 C 108.390625 760.390625 136.589844 760.390625 136.589844 760.390625 Z M 52.175781 760.390625 L 23.976562 760.390625 L 23.976562 788.589844 L 52.175781 788.589844 Z M 80.371094 732.191406 L 52.175781 732.191406 L 52.175781 760.390625 L 80.371094 760.390625 Z M -4.042969 760.390625 L -32.238281 760.390625 L -32.238281 788.589844 L -4.042969 788.589844 Z M 24.15625 732.191406 L -4.042969 732.191406 L -4.042969 760.390625 L 24.15625 760.390625 Z M -59.359375 732.191406 L -59.359375 760.390625 L -32.238281 760.390625 L -32.238281 732.191406 Z M 838.667969 732.191406 L 838.667969 704.175781 L 811.546875 704.175781 L 811.546875 732.371094 Z M 755.152344 732.191406 L 783.351562 732.191406 L 783.351562 704.175781 L 755.152344 704.175781 Z M 783.351562 704.175781 L 811.546875 704.175781 L 811.546875 675.976562 L 783.351562 675.976562 Z M 727.132812 732.191406 L 727.132812 704.175781 L 698.933594 704.175781 L 698.933594 732.371094 Z M 755.152344 704.175781 L 755.152344 675.976562 L 726.953125 675.976562 L 726.953125 704.175781 C 726.953125 704.175781 755.152344 704.175781 755.152344 704.175781 Z M 670.917969 732.191406 L 670.917969 704.175781 L 642.71875 704.175781 L 642.71875 732.371094 Z M 698.933594 704.175781 L 698.933594 675.976562 L 670.738281 675.976562 L 670.738281 704.175781 C 670.738281 704.175781 698.933594 704.175781 698.933594 704.175781 Z M 614.699219 732.191406 L 614.699219 704.175781 L 586.503906 704.175781 L 586.503906 732.371094 Z M 642.71875 704.175781 L 642.71875 675.976562 L 614.519531 675.976562 L 614.519531 704.175781 C 614.519531 704.175781 642.71875 704.175781 642.71875 704.175781 Z M 558.304688 732.191406 L 558.304688 704.175781 L 530.105469 704.175781 L 530.105469 732.371094 Z M 586.503906 704.175781 L 586.503906 675.976562 L 558.304688 675.976562 L 558.304688 704.175781 C 558.304688 704.175781 586.503906 704.175781 586.503906 704.175781 Z M 502.085938 732.191406 L 502.085938 704.175781 L 474.070312 704.175781 L 474.070312 732.371094 Z M 530.285156 704.175781 L 530.285156 675.976562 L 502.085938 675.976562 L 502.085938 704.175781 C 502.085938 704.175781 530.285156 704.175781 530.285156 704.175781 Z M 445.871094 732.191406 L 445.871094 704.175781 L 417.671875 704.175781 L 417.671875 732.371094 Z M 474.070312 704.175781 L 474.070312 675.976562 L 445.871094 675.976562 L 445.871094 704.175781 C 445.871094 704.175781 474.070312 704.175781 474.070312 704.175781 Z M 389.652344 732.191406 L 389.652344 704.175781 L 361.457031 704.175781 L 361.457031 732.371094 Z M 417.851562 704.175781 L 417.851562 675.976562 L 389.652344 675.976562 L 389.652344 704.175781 C 389.652344 704.175781 417.851562 704.175781 417.851562 704.175781 Z M 333.4375 732.191406 L 333.4375 704.175781 L 305.238281 704.175781 L 305.238281 732.371094 Z M 361.457031 704.175781 L 361.457031 675.976562 L 333.257812 675.976562 L 333.257812 704.175781 C 333.257812 704.175781 361.457031 704.175781 361.457031 704.175781 Z M 277.222656 732.191406 L 277.222656 704.175781 L 249.023438 704.175781 L 249.023438 732.371094 Z M 305.238281 704.175781 L 305.238281 675.976562 L 277.042969 675.976562 L 277.042969 704.175781 C 277.042969 704.175781 305.238281 704.175781 305.238281 704.175781 Z M 221.003906 732.191406 L 221.003906 704.175781 L 192.804688 704.175781 L 192.804688 732.371094 Z M 249.023438 704.175781 L 249.023438 675.976562 L 220.824219 675.976562 L 220.824219 704.175781 C 220.824219 704.175781 249.023438 704.175781 249.023438 704.175781 Z M 164.609375 732.191406 L 164.609375 704.175781 L 136.410156 704.175781 L 136.410156 732.371094 Z M 192.804688 704.175781 L 192.804688 675.976562 L 164.609375 675.976562 L 164.609375 704.175781 C 164.609375 704.175781 192.804688 704.175781 192.804688 704.175781 Z M 108.390625 732.191406 L 108.390625 704.175781 L 80.195312 704.175781 L 80.195312 732.371094 Z M 136.589844 704.175781 L 136.589844 675.976562 L 108.390625 675.976562 L 108.390625 704.175781 C 108.390625 704.175781 136.589844 704.175781 136.589844 704.175781 Z M 52.175781 704.175781 L 23.976562 704.175781 L 23.976562 732.371094 L 52.175781 732.371094 Z M 80.371094 704.175781 L 80.371094 675.976562 L 52.175781 675.976562 L 52.175781 704.175781 C 52.175781 704.175781 80.371094 704.175781 80.371094 704.175781 Z M -4.042969 704.175781 L -32.238281 704.175781 L -32.238281 732.371094 L -4.042969 732.371094 Z M 24.15625 675.976562 L -4.042969 675.976562 L -4.042969 704.175781 L 24.15625 704.175781 Z M -59.359375 675.976562 L -59.359375 704.175781 L -32.238281 704.175781 L -32.238281 675.976562 Z M 838.667969 675.976562 L 838.667969 647.777344 L 811.546875 647.777344 L 811.546875 675.976562 Z M 783.351562 675.976562 L 783.351562 647.777344 L 755.152344 647.777344 L 755.152344 675.976562 Z M 811.546875 647.777344 L 811.546875 619.761719 L 783.351562 619.761719 L 783.351562 647.957031 Z M 727.132812 675.976562 L 727.132812 647.777344 L 698.933594 647.777344 L 698.933594 675.976562 Z M 755.152344 647.777344 L 755.152344 619.761719 L 726.953125 619.761719 L 726.953125 647.957031 Z M 670.917969 675.976562 L 670.917969 647.777344 L 642.71875 647.777344 L 642.71875 675.976562 Z M 698.933594 647.777344 L 698.933594 619.761719 L 670.738281 619.761719 L 670.738281 647.957031 Z M 614.699219 675.976562 L 614.699219 647.777344 L 586.503906 647.777344 L 586.503906 675.976562 Z M 642.71875 647.777344 L 642.71875 619.761719 L 614.519531 619.761719 L 614.519531 647.957031 Z M 558.304688 675.976562 L 558.304688 647.777344 L 530.105469 647.777344 L 530.105469 675.976562 Z M 586.503906 647.777344 L 586.503906 619.761719 L 558.304688 619.761719 L 558.304688 647.957031 Z M 502.085938 675.976562 L 502.085938 647.777344 L 474.070312 647.777344 L 474.070312 675.976562 Z M 530.285156 647.777344 L 530.285156 619.761719 L 502.085938 619.761719 L 502.085938 647.957031 Z M 445.871094 675.976562 L 445.871094 647.777344 L 417.671875 647.777344 L 417.671875 675.976562 Z M 474.070312 647.777344 L 474.070312 619.761719 L 445.871094 619.761719 L 445.871094 647.957031 Z M 389.652344 675.976562 L 389.652344 647.777344 L 361.457031 647.777344 L 361.457031 675.976562 Z M 417.851562 647.777344 L 417.851562 619.761719 L 389.652344 619.761719 L 389.652344 647.957031 Z M 333.4375 675.976562 L 333.4375 647.777344 L 305.238281 647.777344 L 305.238281 675.976562 Z M 361.457031 647.777344 L 361.457031 619.761719 L 333.257812 619.761719 L 333.257812 647.957031 Z M 277.222656 675.976562 L 277.222656 647.777344 L 249.023438 647.777344 L 249.023438 675.976562 Z M 305.238281 647.777344 L 305.238281 619.761719 L 277.042969 619.761719 L 277.042969 647.957031 Z M 221.003906 675.976562 L 221.003906 647.777344 L 192.804688 647.777344 L 192.804688 675.976562 Z M 249.023438 647.777344 L 249.023438 619.761719 L 220.824219 619.761719 L 220.824219 647.957031 Z M 164.609375 675.976562 L 164.609375 647.777344 L 136.410156 647.777344 L 136.410156 675.976562 Z M 192.804688 647.777344 L 192.804688 619.761719 L 164.609375 619.761719 L 164.609375 647.957031 Z M 108.390625 675.976562 L 108.390625 647.777344 L 80.195312 647.777344 L 80.195312 675.976562 Z M 136.589844 647.777344 L 136.589844 619.761719 L 108.390625 619.761719 L 108.390625 647.957031 Z M 52.175781 675.976562 L 52.175781 647.777344 L 23.976562 647.777344 L 23.976562 675.976562 Z M 80.371094 647.777344 L 80.371094 619.761719 L 52.175781 619.761719 L 52.175781 647.957031 Z M -4.042969 647.777344 L -32.238281 647.777344 L -32.238281 675.976562 L -4.042969 675.976562 Z M 24.15625 647.777344 L 24.15625 619.761719 L -4.042969 619.761719 L -4.042969 647.957031 Z M -59.359375 619.761719 L -59.359375 647.957031 L -32.238281 647.957031 L -32.238281 619.761719 Z M 838.667969 591.742188 L 811.546875 591.742188 L 811.546875 619.761719 L 838.667969 619.761719 Z M 783.351562 591.742188 L 755.152344 591.742188 L 755.152344 619.761719 L 783.351562 619.761719 Z M 727.132812 591.742188 L 698.933594 591.742188 L 698.933594 619.761719 L 727.132812 619.761719 Z M 670.917969 591.742188 L 642.71875 591.742188 L 642.71875 619.761719 L 670.917969 619.761719 Z M 614.699219 591.742188 L 586.503906 591.742188 L 586.503906 619.761719 L 614.699219 619.761719 Z M 558.304688 591.742188 L 530.105469 591.742188 L 530.105469 619.761719 L 558.304688 619.761719 Z M 502.085938 591.742188 L 474.070312 591.742188 L 474.070312 619.761719 L 502.265625 619.761719 Z M 445.871094 591.742188 L 417.671875 591.742188 L 417.671875 619.761719 L 445.871094 619.761719 Z M 389.652344 591.742188 L 361.457031 591.742188 L 361.457031 619.761719 L 389.652344 619.761719 Z M 333.4375 591.742188 L 305.238281 591.742188 L 305.238281 619.761719 L 333.4375 619.761719 Z M 277.222656 591.742188 L 249.023438 591.742188 L 249.023438 619.761719 L 277.222656 619.761719 Z M 221.003906 591.742188 L 192.804688 591.742188 L 192.804688 619.761719 L 221.003906 619.761719 Z M 164.609375 591.742188 L 136.410156 591.742188 L 136.410156 619.761719 L 164.609375 619.761719 Z M 108.390625 591.742188 L 80.195312 591.742188 L 80.195312 619.761719 L 108.390625 619.761719 Z M 52.175781 591.742188 L 23.976562 591.742188 L 23.976562 619.761719 L 52.175781 619.761719 Z M -4.042969 591.742188 L -32.238281 591.742188 L -32.238281 619.761719 L -4.042969 619.761719 Z M -4.042969 591.742188 " fill-opacity="1" fill-rule="nonzero"/></g><g clip-path="url(#6e17b5b11e)"><path stroke-linecap="butt" transform="matrix(0, 0.74963, -0.74963, 0, 839.139098, 930.611516)" fill="none" stroke-linejoin="miter" d="M 0.00235433 -0.00203637 L 0.00235433 1158.283298 L 219.14177 1158.283298 L 219.14177 -0.00203637 L 0.00235433 -0.00203637 " stroke="#ffffff" stroke-width="4" stroke-opacity="1" stroke-miterlimit="4"/></g></svg>