<?xml version="1.0" encoding="iso-8859-1"?>
<!-- Uploaded to: SVG Repo, www.svgrepo.com, Generator: SVG Repo Mixer Tools -->
<svg fill="#000000" height="800px" width="800px" version="1.1" id="Layer_1" xmlns="http://www.w3.org/2000/svg" xmlns:xlink="http://www.w3.org/1999/xlink" 
	 viewBox="0 0 511.994 511.994" xml:space="preserve">
<g>
	<g>
		<g>
			<path d="M256.011,149.322c-2.347,0-4.715-0.789-6.677-2.325l-35.989-28.8v52.459h85.333v-52.459l-36.011,28.8
				C260.725,148.533,258.357,149.322,256.011,149.322z"/>
			<path d="M506.272,129.205l-245.333-128c-3.093-1.6-6.784-1.6-9.877,0l-245.333,128c-4.352,2.261-6.592,7.232-5.419,12.011
				c1.173,4.757,5.461,8.107,10.368,8.107h32v352c0,5.888,4.779,10.667,10.667,10.667h149.333c5.888,0,10.667-4.779,10.667-10.667
				v-74.667c0-23.531,19.136-42.667,42.667-42.667c23.531,0,42.667,19.136,42.667,42.667v74.667c0,5.888,4.779,10.667,10.667,10.667
				h149.333c5.888,0,10.667-4.779,10.667-10.667v-352h32c4.907,0,9.195-3.349,10.347-8.128
				C512.843,136.416,510.645,131.466,506.272,129.205z M128.011,362.656h-32c-5.888,0-10.667-4.779-10.667-10.667v-53.333h42.667
				V362.656z M128.011,277.322H85.344v-53.333c0-5.888,4.779-10.667,10.667-10.667h32V277.322z M192.011,351.989
				c0,5.888-4.779,10.667-10.667,10.667h-32v-64h42.667V351.989z M192.011,277.322h-42.667v-64h32
				c5.888,0,10.667,4.779,10.667,10.667V277.322z M309.344,191.989H202.677c-5.888,0-10.667-4.779-10.667-10.667V95.989
				c0-0.491,0.213-0.896,0.277-1.344c0.085-0.725,0.192-1.429,0.427-2.133c0.256-0.704,0.619-1.323,1.003-1.941
				c0.235-0.405,0.341-0.853,0.64-1.237c0.128-0.149,0.32-0.235,0.448-0.384c0.512-0.576,1.109-0.981,1.728-1.429
				c0.512-0.363,0.981-0.768,1.536-1.045c0.619-0.299,1.28-0.427,1.963-0.619c0.683-0.171,1.323-0.363,2.027-0.405
				c0.213-0.021,0.405-0.128,0.619-0.128h106.667c0.213,0,0.405,0.107,0.619,0.128c0.683,0.043,1.344,0.235,2.005,0.405
				c0.683,0.171,1.365,0.32,1.984,0.619c0.555,0.277,1.024,0.661,1.557,1.045c0.619,0.448,1.216,0.875,1.707,1.429
				c0.128,0.149,0.32,0.213,0.448,0.384c0.299,0.384,0.384,0.832,0.64,1.237c0.384,0.64,0.747,1.237,1.003,1.941
				c0.256,0.704,0.341,1.408,0.427,2.133c0.064,0.448,0.277,0.853,0.277,1.344v85.333
				C320.011,187.21,315.232,191.989,309.344,191.989z M362.677,362.656h-32c-5.888,0-10.667-4.779-10.667-10.667v-53.333h42.667
				V362.656z M362.677,277.322h-42.667v-53.333c0-5.888,4.779-10.667,10.667-10.667h32V277.322z M426.677,351.989
				c0,5.888-4.779,10.667-10.667,10.667h-32v-64h42.667V351.989z M426.677,277.322h-42.667v-64h32
				c5.888,0,10.667,4.779,10.667,10.667V277.322z"/>
			<polygon points="278.944,106.656 233.077,106.656 256.011,125.002 			"/>
		</g>
	</g>
</g>
</svg>