<svg xmlns="http://www.w3.org/2000/svg" xmlns:xlink="http://www.w3.org/1999/xlink" width="794" zoomAndPan="magnify" viewBox="0 0 595.5 842.249979" height="1123" preserveAspectRatio="xMidYMid meet" version="1.0"><defs><clipPath id="5cfbc3e2eb"><path d="M 0.015625 0 L 594.984375 0 L 594.984375 841.5 L 0.015625 841.5 Z M 0.015625 0 " clip-rule="nonzero"/></clipPath><clipPath id="078fec4445"><path d="M 1 766 L 317 766 L 317 841.210938 L 1 841.210938 Z M 1 766 " clip-rule="nonzero"/></clipPath><clipPath id="71ec76a0f4"><path d="M 0.015625 765.238281 L 317.507812 765.238281 L 317.507812 841.210938 L 0.015625 841.210938 Z M 0.015625 765.238281 " clip-rule="nonzero"/></clipPath><clipPath id="0cd9225c4e"><path d="M 318 766 L 594.984375 766 L 594.984375 841.210938 L 318 841.210938 Z M 318 766 " clip-rule="nonzero"/></clipPath><clipPath id="70f203cfda"><path d="M 317.390625 765.238281 L 594.984375 765.238281 L 594.984375 841.210938 L 317.390625 841.210938 Z M 317.390625 765.238281 " clip-rule="nonzero"/></clipPath></defs><g clip-path="url(#5cfbc3e2eb)"><path fill="#ffffff" d="M 0.015625 0 L 594.984375 0 L 594.984375 841.5 L 0.015625 841.5 Z M 0.015625 0 " fill-opacity="1" fill-rule="nonzero"/><path fill="#bf1717" d="M 0.015625 0 L 595.210938 0 L 595.210938 841.816406 L 0.015625 841.816406 Z M 0.015625 0 " fill-opacity="1" fill-rule="nonzero"/></g><g clip-path="url(#078fec4445)"><path fill="#ffffff" d="M 40.636719 805.859375 L 1.285156 805.859375 L 1.285156 766.507812 L 40.636719 766.507812 Z M 119.347656 766.507812 L 79.992188 766.507812 L 79.992188 805.859375 L 119.347656 805.859375 Z M 198.054688 766.507812 L 158.699219 766.507812 L 158.699219 805.859375 L 198.054688 805.859375 Z M 276.761719 766.507812 L 237.40625 766.507812 L 237.40625 805.859375 L 276.761719 805.859375 Z M 276.761719 845.214844 L 316.113281 845.214844 L 316.113281 805.859375 L 276.761719 805.859375 Z M 198.054688 845.214844 L 237.40625 845.214844 L 237.40625 805.859375 L 198.054688 805.859375 Z M 119.347656 845.214844 L 158.699219 845.214844 L 158.699219 805.859375 L 119.347656 805.859375 Z M 40.636719 845.214844 L 79.992188 845.214844 L 79.992188 805.859375 L 40.636719 805.859375 Z M 40.636719 845.214844 L 1.285156 845.214844 L 1.285156 884.566406 L 40.636719 884.566406 Z M 119.347656 845.214844 L 79.992188 845.214844 L 79.992188 884.566406 L 119.347656 884.566406 Z M 198.054688 845.214844 L 158.699219 845.214844 L 158.699219 884.566406 L 198.054688 884.566406 Z M 276.761719 845.214844 L 237.40625 845.214844 L 237.40625 884.566406 L 276.761719 884.566406 Z M 276.761719 923.921875 L 316.113281 923.921875 L 316.113281 884.566406 L 276.761719 884.566406 Z M 198.054688 923.921875 L 237.40625 923.921875 L 237.40625 884.566406 L 198.054688 884.566406 Z M 119.347656 923.921875 L 158.699219 923.921875 L 158.699219 884.566406 L 119.347656 884.566406 Z M 40.636719 923.921875 L 79.992188 923.921875 L 79.992188 884.566406 L 40.636719 884.566406 Z M 40.636719 923.921875 L 1.285156 923.921875 L 1.285156 963.273438 L 40.636719 963.273438 Z M 119.347656 923.921875 L 79.992188 923.921875 L 79.992188 963.273438 L 119.347656 963.273438 Z M 198.054688 923.921875 L 158.699219 923.921875 L 158.699219 963.273438 L 198.054688 963.273438 Z M 276.761719 923.921875 L 237.40625 923.921875 L 237.40625 963.273438 L 276.761719 963.273438 Z M 276.761719 1002.628906 L 316.113281 1002.628906 L 316.113281 963.273438 L 276.761719 963.273438 Z M 198.054688 1002.628906 L 237.40625 1002.628906 L 237.40625 963.273438 L 198.054688 963.273438 Z M 119.347656 1002.628906 L 158.699219 1002.628906 L 158.699219 963.273438 L 119.347656 963.273438 Z M 40.636719 1002.628906 L 79.992188 1002.628906 L 79.992188 963.273438 L 40.636719 963.273438 Z M 40.636719 1002.628906 L 1.285156 1002.628906 L 1.285156 1041.980469 L 40.636719 1041.980469 Z M 119.347656 1002.628906 L 79.992188 1002.628906 L 79.992188 1041.980469 L 119.347656 1041.980469 Z M 198.054688 1002.628906 L 158.699219 1002.628906 L 158.699219 1041.980469 L 198.054688 1041.980469 Z M 276.761719 1002.628906 L 237.40625 1002.628906 L 237.40625 1041.980469 L 276.761719 1041.980469 Z M 276.761719 1081.335938 L 316.113281 1081.335938 L 316.113281 1041.980469 L 276.761719 1041.980469 Z M 198.054688 1081.335938 L 237.40625 1081.335938 L 237.40625 1041.980469 L 198.054688 1041.980469 Z M 119.308594 1081.335938 L 158.660156 1081.335938 L 158.660156 1041.980469 L 119.308594 1041.980469 Z M 40.636719 1081.335938 L 79.992188 1081.335938 L 79.992188 1041.980469 L 40.636719 1041.980469 Z M 40.636719 1081.335938 " fill-opacity="1" fill-rule="nonzero"/></g><g clip-path="url(#71ec76a0f4)"><path fill="#bf1717" d="M 0.015625 765.238281 L 0.015625 1082.605469 L 317.382812 1082.605469 L 317.382812 765.238281 Z M 316.113281 845.214844 L 276.761719 845.214844 L 276.761719 884.566406 L 316.113281 884.566406 L 316.113281 923.921875 L 276.761719 923.921875 L 276.761719 963.273438 L 316.113281 963.273438 L 316.113281 1002.628906 L 276.761719 1002.628906 L 276.761719 1041.980469 L 316.113281 1041.980469 L 316.113281 1081.335938 L 276.761719 1081.335938 L 276.761719 1041.980469 L 237.40625 1041.980469 L 237.40625 1081.335938 L 198.054688 1081.335938 L 198.054688 1041.980469 L 158.699219 1041.980469 L 158.699219 1081.335938 L 119.347656 1081.335938 L 119.347656 1041.980469 L 79.992188 1041.980469 L 79.992188 1081.335938 L 40.636719 1081.335938 L 40.636719 1041.980469 L 1.285156 1041.980469 L 1.285156 1002.628906 L 40.636719 1002.628906 L 40.636719 963.273438 L 1.285156 963.273438 L 1.285156 923.921875 L 40.636719 923.921875 L 40.636719 884.566406 L 1.285156 884.566406 L 1.285156 845.214844 L 40.636719 845.214844 L 40.636719 805.859375 L 1.285156 805.859375 L 1.285156 766.507812 L 40.636719 766.507812 L 40.636719 805.859375 L 79.992188 805.859375 L 79.992188 766.507812 L 119.347656 766.507812 L 119.347656 805.859375 L 158.699219 805.859375 L 158.699219 766.507812 L 198.054688 766.507812 L 198.054688 805.859375 L 237.40625 805.859375 L 237.40625 766.507812 L 276.761719 766.507812 L 276.761719 805.859375 L 316.113281 805.859375 Z M 276.761719 805.859375 L 276.761719 845.214844 L 237.40625 845.214844 L 237.40625 805.859375 Z M 158.699219 845.214844 L 158.699219 805.859375 L 198.054688 805.859375 L 198.054688 845.214844 Z M 79.992188 845.214844 L 79.992188 805.859375 L 119.347656 805.859375 L 119.347656 845.214844 Z M 79.992188 884.566406 L 40.636719 884.566406 L 40.636719 845.214844 L 79.992188 845.214844 Z M 119.347656 884.566406 L 119.347656 845.214844 L 158.699219 845.214844 L 158.699219 884.566406 Z M 198.054688 845.214844 L 237.40625 845.214844 L 237.40625 884.566406 L 198.054688 884.566406 Z M 237.40625 884.566406 L 276.761719 884.566406 L 276.761719 923.921875 L 237.40625 923.921875 Z M 158.699219 884.566406 L 198.054688 884.566406 L 198.054688 923.921875 L 158.699219 923.921875 Z M 119.347656 923.921875 L 79.992188 923.921875 L 79.992188 884.566406 L 119.347656 884.566406 Z M 79.992188 963.273438 L 40.636719 963.273438 L 40.636719 923.921875 L 79.992188 923.921875 Z M 158.699219 923.921875 L 158.699219 963.273438 L 119.347656 963.273438 L 119.347656 923.921875 Z M 198.054688 923.921875 L 237.40625 923.921875 L 237.40625 963.273438 L 198.054688 963.273438 Z M 237.40625 963.273438 L 276.761719 963.273438 L 276.761719 1002.628906 L 237.40625 1002.628906 Z M 198.054688 963.273438 L 198.054688 1002.628906 L 158.699219 1002.628906 L 158.699219 963.273438 Z M 119.347656 963.273438 L 119.347656 1002.628906 L 79.992188 1002.628906 L 79.992188 963.273438 Z M 79.992188 1002.628906 L 79.992188 1041.980469 L 40.636719 1041.980469 L 40.636719 1002.628906 Z M 158.699219 1002.628906 L 158.699219 1041.980469 L 119.347656 1041.980469 L 119.347656 1002.628906 Z M 237.40625 1002.628906 L 237.40625 1041.980469 L 198.054688 1041.980469 L 198.054688 1002.628906 Z M 237.40625 1002.628906 " fill-opacity="1" fill-rule="nonzero"/></g><g clip-path="url(#0cd9225c4e)"><path fill="#ffffff" d="M 358.011719 805.859375 L 318.660156 805.859375 L 318.660156 766.507812 L 358.011719 766.507812 Z M 436.71875 766.507812 L 397.367188 766.507812 L 397.367188 805.859375 L 436.71875 805.859375 Z M 515.429688 766.507812 L 476.074219 766.507812 L 476.074219 805.859375 L 515.429688 805.859375 Z M 594.136719 766.507812 L 554.78125 766.507812 L 554.78125 805.859375 L 594.136719 805.859375 Z M 594.136719 845.214844 L 633.488281 845.214844 L 633.488281 805.859375 L 594.136719 805.859375 Z M 515.429688 845.214844 L 554.78125 845.214844 L 554.78125 805.859375 L 515.429688 805.859375 Z M 436.71875 845.214844 L 476.074219 845.214844 L 476.074219 805.859375 L 436.71875 805.859375 Z M 358.011719 845.214844 L 397.367188 845.214844 L 397.367188 805.859375 L 358.011719 805.859375 Z M 358.011719 845.214844 L 318.660156 845.214844 L 318.660156 884.566406 L 358.011719 884.566406 Z M 436.71875 845.214844 L 397.367188 845.214844 L 397.367188 884.566406 L 436.71875 884.566406 Z M 515.429688 845.214844 L 476.074219 845.214844 L 476.074219 884.566406 L 515.429688 884.566406 Z M 594.136719 845.214844 L 554.78125 845.214844 L 554.78125 884.566406 L 594.136719 884.566406 Z M 594.136719 923.921875 L 633.488281 923.921875 L 633.488281 884.566406 L 594.136719 884.566406 Z M 515.429688 923.921875 L 554.78125 923.921875 L 554.78125 884.566406 L 515.429688 884.566406 Z M 436.71875 923.921875 L 476.074219 923.921875 L 476.074219 884.566406 L 436.71875 884.566406 Z M 358.011719 923.921875 L 397.367188 923.921875 L 397.367188 884.566406 L 358.011719 884.566406 Z M 358.011719 923.921875 L 318.660156 923.921875 L 318.660156 963.273438 L 358.011719 963.273438 Z M 436.71875 923.921875 L 397.367188 923.921875 L 397.367188 963.273438 L 436.71875 963.273438 Z M 515.429688 923.921875 L 476.074219 923.921875 L 476.074219 963.273438 L 515.429688 963.273438 Z M 594.136719 923.921875 L 554.78125 923.921875 L 554.78125 963.273438 L 594.136719 963.273438 Z M 594.136719 1002.628906 L 633.488281 1002.628906 L 633.488281 963.273438 L 594.136719 963.273438 Z M 515.429688 1002.628906 L 554.78125 1002.628906 L 554.78125 963.273438 L 515.429688 963.273438 Z M 436.71875 1002.628906 L 476.074219 1002.628906 L 476.074219 963.273438 L 436.71875 963.273438 Z M 358.011719 1002.628906 L 397.367188 1002.628906 L 397.367188 963.273438 L 358.011719 963.273438 Z M 358.011719 1002.628906 L 318.660156 1002.628906 L 318.660156 1041.980469 L 358.011719 1041.980469 Z M 436.71875 1002.628906 L 397.367188 1002.628906 L 397.367188 1041.980469 L 436.71875 1041.980469 Z M 515.429688 1002.628906 L 476.074219 1002.628906 L 476.074219 1041.980469 L 515.429688 1041.980469 Z M 594.136719 1002.628906 L 554.78125 1002.628906 L 554.78125 1041.980469 L 594.136719 1041.980469 Z M 594.136719 1081.335938 L 633.488281 1081.335938 L 633.488281 1041.980469 L 594.136719 1041.980469 Z M 515.429688 1081.335938 L 554.78125 1081.335938 L 554.78125 1041.980469 L 515.429688 1041.980469 Z M 436.683594 1081.335938 L 476.035156 1081.335938 L 476.035156 1041.980469 L 436.683594 1041.980469 Z M 358.011719 1081.335938 L 397.367188 1081.335938 L 397.367188 1041.980469 L 358.011719 1041.980469 Z M 358.011719 1081.335938 " fill-opacity="1" fill-rule="nonzero"/></g><g clip-path="url(#70f203cfda)"><path fill="#bf1717" d="M 317.390625 765.238281 L 317.390625 1082.605469 L 634.757812 1082.605469 L 634.757812 765.238281 Z M 633.488281 845.214844 L 594.136719 845.214844 L 594.136719 884.566406 L 633.488281 884.566406 L 633.488281 923.921875 L 594.136719 923.921875 L 594.136719 963.273438 L 633.488281 963.273438 L 633.488281 1002.628906 L 594.136719 1002.628906 L 594.136719 1041.980469 L 633.488281 1041.980469 L 633.488281 1081.335938 L 594.136719 1081.335938 L 594.136719 1041.980469 L 554.78125 1041.980469 L 554.78125 1081.335938 L 515.429688 1081.335938 L 515.429688 1041.980469 L 476.074219 1041.980469 L 476.074219 1081.335938 L 436.71875 1081.335938 L 436.71875 1041.980469 L 397.367188 1041.980469 L 397.367188 1081.335938 L 358.011719 1081.335938 L 358.011719 1041.980469 L 318.660156 1041.980469 L 318.660156 1002.628906 L 358.011719 1002.628906 L 358.011719 963.273438 L 318.660156 963.273438 L 318.660156 923.921875 L 358.011719 923.921875 L 358.011719 884.566406 L 318.660156 884.566406 L 318.660156 845.214844 L 358.011719 845.214844 L 358.011719 805.859375 L 318.660156 805.859375 L 318.660156 766.507812 L 358.011719 766.507812 L 358.011719 805.859375 L 397.367188 805.859375 L 397.367188 766.507812 L 436.71875 766.507812 L 436.71875 805.859375 L 476.074219 805.859375 L 476.074219 766.507812 L 515.429688 766.507812 L 515.429688 805.859375 L 554.78125 805.859375 L 554.78125 766.507812 L 594.136719 766.507812 L 594.136719 805.859375 L 633.488281 805.859375 Z M 594.136719 805.859375 L 594.136719 845.214844 L 554.78125 845.214844 L 554.78125 805.859375 Z M 476.074219 845.214844 L 476.074219 805.859375 L 515.429688 805.859375 L 515.429688 845.214844 Z M 397.367188 845.214844 L 397.367188 805.859375 L 436.71875 805.859375 L 436.71875 845.214844 Z M 397.367188 884.566406 L 358.011719 884.566406 L 358.011719 845.214844 L 397.367188 845.214844 Z M 436.71875 884.566406 L 436.71875 845.214844 L 476.074219 845.214844 L 476.074219 884.566406 Z M 515.429688 845.214844 L 554.78125 845.214844 L 554.78125 884.566406 L 515.429688 884.566406 Z M 554.78125 884.566406 L 594.136719 884.566406 L 594.136719 923.921875 L 554.78125 923.921875 Z M 476.074219 884.566406 L 515.429688 884.566406 L 515.429688 923.921875 L 476.074219 923.921875 Z M 436.71875 923.921875 L 397.367188 923.921875 L 397.367188 884.566406 L 436.71875 884.566406 Z M 397.367188 963.273438 L 358.011719 963.273438 L 358.011719 923.921875 L 397.367188 923.921875 Z M 476.074219 923.921875 L 476.074219 963.273438 L 436.71875 963.273438 L 436.71875 923.921875 Z M 515.429688 923.921875 L 554.78125 923.921875 L 554.78125 963.273438 L 515.429688 963.273438 Z M 554.78125 963.273438 L 594.136719 963.273438 L 594.136719 1002.628906 L 554.78125 1002.628906 Z M 515.429688 963.273438 L 515.429688 1002.628906 L 476.074219 1002.628906 L 476.074219 963.273438 Z M 436.71875 963.273438 L 436.71875 1002.628906 L 397.367188 1002.628906 L 397.367188 963.273438 Z M 397.367188 1002.628906 L 397.367188 1041.980469 L 358.011719 1041.980469 L 358.011719 1002.628906 Z M 476.074219 1002.628906 L 476.074219 1041.980469 L 436.71875 1041.980469 L 436.71875 1002.628906 Z M 554.78125 1002.628906 L 554.78125 1041.980469 L 515.429688 1041.980469 L 515.429688 1002.628906 Z M 554.78125 1002.628906 " fill-opacity="1" fill-rule="nonzero"/></g></svg>